<?xml version="1.0" encoding="utf-8"?>
<!-- Generator: Adobe Illustrator 16.0.0, SVG Export Plug-In . SVG Version: 6.00 Build 0)  -->
<!DOCTYPE svg PUBLIC "-//W3C//DTD SVG 1.1//EN" "http://www.w3.org/Graphics/SVG/1.1/DTD/svg11.dtd">
<svg version="1.1" id="Layer_1" xmlns="http://www.w3.org/2000/svg" xmlns:xlink="http://www.w3.org/1999/xlink" x="0px" y="0px"
	 width="482.837px" height="224.971px" viewBox="0 0 482.837 224.971" enable-background="new 0 0 482.837 224.971"
	 xml:space="preserve">
<g>
	<g>
		<path d="M135.545,69.896c0.162,2.68-0.993,5.678-3.414,8.395c-10.097,11.28-20.983,20.871-32.086,28.557
			c-2.765,19.573-6.749,42.836-11.95,69.208c-1.039,5.271-7.395,14.394-18.837,24.111c-11.425,9.481-16.183,9.546-14.711,3.511
			c7.088-29.734,13.062-57.224,17.859-81.704c-27.287,11.207-53.132,10.146-71.262,0.296c-1.364-0.734-1.495-2.903-0.465-6.445
			c0.429-1.472,1.7-3.486,3.832-6.104c19.404-24.71,39.227-52.102,55.348-68.903C76.083,23.69,88.605,17.154,95.822,26.621
			c1.286,1.705,2.659,4.345,4.289,7.215c1.421,2.519,2.219,3.748,2.415,3.819c1.191-0.526,1.856,3.723,2.196,11.702
			c0.414,9.609-0.474,24.008-2.735,42.73c10.509-5.939,20.761-13.625,30.19-22.906C134.226,67.188,135.369,67.236,135.545,69.896z
			 M75.969,103.178c5.39-29.491,8.803-53.658,10.249-71.308c-14.99,6.966-38.404,37.922-64.046,72.162
			C37.751,108.66,56.568,108.902,75.969,103.178z"/>
	</g>
	<path fill="#F15A29" d="M194.271,220.4c0,0.811-0.218,1.396-0.649,1.751c-0.433,0.355-2.581,0.889-6.444,1.6
		c-4.778,0.812-9.482,1.22-14.109,1.22c-10.422,0-19.956-2.692-28.6-8.075c-8.644-5.384-14.744-12.493-18.303-21.33
		c-14.046-2.084-25.238-8.049-33.578-17.903c-8.341-9.851-12.51-21.912-12.51-36.185c0-16.1,5.218-29.432,15.655-39.995
		c10.435-10.562,23.958-15.845,40.565-15.845c16.505,0,29.964,5.27,40.376,15.808c10.409,10.539,15.616,23.882,15.616,40.032
		c0,14.322-4.172,26.422-12.515,36.299c-8.344,9.879-19.535,15.808-33.574,17.789c8.646,15.54,21.415,23.311,38.302,23.311
		c2.136,0,5.011-0.229,8.622-0.686C193.889,218.19,194.271,218.927,194.271,220.4z M175.53,141.44
		c0-14.971-3.598-27.202-10.791-36.692c-7.193-9.488-16.686-14.233-28.48-14.233c-11.844,0-21.364,4.745-28.557,14.233
		c-7.193,9.49-10.791,21.722-10.791,36.692c0,14.92,3.585,27.023,10.753,36.311c7.168,9.285,16.698,13.928,28.594,13.928
		c11.844,0,21.351-4.643,28.519-13.928C171.946,168.464,175.53,156.36,175.53,141.44z"/>
	<path d="M277.155,188.901c0,1.089-0.407,1.686-1.22,1.787c-9.243,1.005-15.566,2.76-18.969,5.269
		c-0.711,0.55-1.421,0.827-2.133,0.827c-1.017,0-1.523-0.407-1.523-1.219l0.609-9.6c-7.517,6.807-14.321,10.208-20.415,10.208
		c-6.959,0-12.381-1.97-16.265-5.911c-3.886-3.939-5.829-9.291-5.829-16.055v-28.525c0-4.526-0.584-7.525-1.751-9
		c-1.169-1.477-3.479-2.214-6.933-2.214c-0.66,0-1.396,0.026-2.209,0.075c-0.763,0-1.144-0.646-1.144-1.944
		c0-1.599,0.406-2.396,1.217-2.396c5.872,0,13.569-1.145,23.088-3.43c0.913,0,1.369,0.637,1.369,1.905v41.897
		c0,5.741,1.093,9.918,3.284,12.533c2.189,2.615,5.626,3.922,10.312,3.922c3.003,0,5.65-0.559,7.942-1.678
		c2.291-1.119,4.736-3.102,7.333-5.95v-33.721c0-4.475-0.597-7.464-1.79-8.963c-1.193-1.501-3.568-2.252-7.122-2.252
		c-0.61,0-1.322,0.026-2.134,0.075c-0.762,0-1.143-0.646-1.143-1.944c0-1.599,0.406-2.396,1.219-2.396
		c5.891,0,13.61-1.145,23.159-3.43c0.913,0,1.37,0.637,1.37,1.905v48.603c0,3.504,0.496,5.854,1.486,7.046
		c0.99,1.195,3.313,2.046,6.97,2.553C276.748,186.881,277.155,187.556,277.155,188.901z"/>
	<path d="M333.154,195.565c-2.828,0-5.29-0.699-7.385-2.096c-2.096-1.395-3.521-3.287-4.279-5.674
		c-5.436,5.586-12.545,8.378-21.33,8.378c-4.572,0-8.304-1.409-11.199-4.228s-4.341-6.334-4.341-10.551
		c0-10.41,12.34-18.842,37.021-25.292l0.457-11.883v-0.382c0-3.656-0.901-6.563-2.704-8.723c-1.803-2.157-4.202-3.237-7.198-3.237
		c-2.997,0-5.536,0.724-7.619,2.171s-3.149,3.265-3.198,5.447c-0.052,3.251-0.902,5.789-2.553,7.617
		c-1.651,1.828-3.847,2.743-6.589,2.743c-1.626,0-2.946-0.481-3.961-1.448c-1.018-0.963-1.524-2.26-1.524-3.885
		c0-3.91,3.555-8.01,10.665-12.303c7.109-4.291,13.712-6.438,19.808-6.438c5.485,0,9.927,1.627,13.33,4.877
		c3.402,3.25,5.104,7.617,5.104,13.102v0.915l-1.143,34.433v0.533c0,5.332,1.727,7.998,5.18,7.998c1.677,0,3.631-1.015,5.866-3.047
		l0.533-0.152c0.406,0,0.787,0.268,1.143,0.801c0.354,0.533,0.534,1.104,0.534,1.714c0,1.474-1.537,3.276-4.609,5.409
		C340.09,194.499,336.753,195.565,333.154,195.565z M321.49,161.209c-14.778,3.36-22.168,8.911-22.168,16.653
		c0,7.231,2.781,10.846,8.349,10.846c2.683,0,5.325-0.672,7.933-2.022c2.606-1.35,4.366-3.018,5.277-5.005L321.49,161.209z"/>
	<path d="M429.361,191.757c0,1.422-0.407,2.133-1.22,2.133c-2.032,0-4.521-0.152-7.466-0.457c-3.245-0.306-6.108-0.457-8.588-0.457
		c-2.532,0-5.443,0.151-8.731,0.457c-2.988,0.305-5.495,0.457-7.518,0.457c-0.811,0-1.217-0.711-1.217-2.133
		c0-1.27,0.406-1.955,1.22-2.059c3.505-0.404,5.802-1.395,6.895-2.969c1.091-1.575,1.638-4.877,1.638-9.904v-25.444
		c0-5.687-1.117-9.853-3.353-12.493c-2.234-2.64-5.688-3.962-10.359-3.962c-2.946,0-5.55,0.56-7.81,1.677s-4.684,3.099-7.275,5.941
		v34.281c0,5.027,0.546,8.329,1.639,9.904c1.091,1.574,3.39,2.564,6.894,2.969c0.812,0.104,1.22,0.789,1.22,2.059
		c0,1.422-0.407,2.133-1.22,2.133c-2.083,0-4.621-0.152-7.617-0.457c-3.302-0.306-6.196-0.457-8.685-0.457
		c-2.438,0-5.281,0.151-8.531,0.457c-2.998,0.305-5.537,0.457-7.618,0.457c-0.813,0-1.22-0.711-1.22-2.133
		c0-1.27,0.406-1.955,1.22-2.059c4.367-0.557,7.186-1.608,8.456-3.155c1.268-1.547,1.903-4.78,1.903-9.699V148.7
		c0-4.059-0.521-6.719-1.561-7.988c-1.042-1.267-3.365-2.104-6.972-2.51c-0.812,0-1.218-0.672-1.218-2.021
		c0-1.24,0.406-1.863,1.218-1.863c5.028-1.27,9.219-2.705,12.569-4.305c3.353-1.6,5.461-2.908,6.324-3.923
		c0.507-0.61,1.066-0.914,1.675-0.914c1.422,0,2.135,0.405,2.135,1.218l-0.611,9.599c7.301-6.804,14.094-10.208,20.38-10.208
		c6.896,0,12.282,1.981,16.16,5.943c3.878,3.961,5.817,9.293,5.817,15.997v29.101c0,4.979,0.621,8.227,1.865,9.75
		c1.245,1.523,4.025,2.565,8.342,3.123C428.954,189.802,429.361,190.487,429.361,191.757z"/>
	<path d="M482.837,133.251c0,2.741-0.66,4.113-1.98,4.113l-22.701-0.609v36.566c0,9.549,3.401,14.32,10.207,14.32
		c4.215,0,8.049-0.99,11.504-2.971c0.405,0,0.773,0.267,1.104,0.801c0.329,0.533,0.494,1.104,0.494,1.713
		c0,1.271-1.889,2.985-5.664,5.143c-3.775,2.159-8.021,3.238-12.734,3.238c-5.777,0-10.391-1.766-13.836-5.295
		c-3.446-3.529-5.168-8.189-5.168-13.979v-0.687l0.304-37.023c0-1.421-0.609-2.133-1.829-2.133h-5.789
		c-1.117,0-1.676-0.647-1.676-1.944c0-0.997,0.454-1.746,1.366-2.244c7.038-4.181,13.163-10.07,18.377-17.67
		c0.558-0.814,1.266-1.224,2.128-1.224c1.416,0,2.125,0.407,2.125,1.22l-0.609,14.551h22.397
		C482.177,129.138,482.837,130.507,482.837,133.251z"/>
</g>
</svg>
